<?xml version="1.0" encoding="UTF-8"?>
<svg version="1.1" viewBox="0 0 2048 1598" width="150" height="60" xmlns="http://www.w3.org/2000/svg">
<path transform="translate(883,19)" d="m0 0h6l6 4 3 5v8l-5 15-6 12-11 18-8 13-17 28-11 18-17 26-11 17-17 26-14 22-10 14-7 11-10 15-10 16-6 8-12 18-11 17-9 13-10 16-11 17-9 14-7 10-14 22-11 17-13 21-14 22-12 18-15 24-14 23-10 15-11 17-10 15-9 14-11 18-10 15-9 14-17 26-10 15-6 10-14 21-11 17-15 25-9 14-10 15-9 14-6 11-11 16-8 13v4l6 1 18-11 17-12 19-14 11-7 13-9 15-9 13-8 23-12 14-7 12-3h10l6 3 5 5 1 3v10l-6 10-11 8-26 14-11 7-23 13-11 7-13 9-12 9-6 5-6 11-3 7v9l3 8 5 5 5 4 9 4h29l7-2 14-2 31-9 21-8 25-11 25-12 27-15 20-11 11-8 12-8 30-23 8-7 21-21 13-10 18-10 16-7 14-4 20-4h13l19 5 14 7 9 7 9 15 2 6v23l-9 20-11 12-12 5-8-1-6-4-4-6-1-8 4-10 6-8 1-3v-12l-2-4-7-2-11-1-19 2-15 6-12 7-14 11-4 8-1 3v7l5 10 12 13 8 7 12 12 13 17 8 11 5 8 5-1 19-9 7-5 16-8 24-14 14-8 19-11 12-6 20-12 22-12 19-11 12-8 16-8 19-9 15-4h13l6 3 4 5 1 8-2 5-2 13-8 16-7 11-6 10-8 15-4 12 11-6 5-4 8-5 11-9 13-9 23-15 20-12 20-9 21-7 4-1h30l14 5 10 8 8 7v2l4 2 3 2 8-1 15-4 34-13 51-17 22-6 6-2 12-1 15-6 9-7 3-2 12-1 9 3 3 4 1 10-7 20-12 25-6 12-4 11 7-3 11-6 13-12 9-7 11-9 24-16 16-9 10-6 23-8h10l14 7 5 6 6 18 2 8-1 15-2 7-2 16-7 31-4 15v22l2 7h7l17-5 22-11 23-15 33-22 34-24 10-7 13-10 14-10 15-12 9-7 10-8 17-12 10-4 4-1h10l6 3 4 5 1 3v8l-8 14-6 7-14 11-11 10-15 11-15 12-14 11-18 14-13 9-11 8-27 18-20 12-11 7-17 10-23 10-21 7-8 1h-23l-10-3-9-7-5-9-2-5-1-14-3-9 1-9 2-8 1-22 5-22 6-25v-11l-8 1-14 7-10 8-24 18-8 8-8 7-9 7-12 9-1 2h-2l-1 3-8 7-7 8-8 7-10 11h-2l-2 4-13 12-9 9-11 9-13 11-8 4h-7l-10-4-6-5-2-4v-11l5-16 14-29 11-23 11-18 11-21 4-10-1-5-9 1-15 5-15 4-35 11-22 8-21 8-14 6-9 10-10 15-7 8-8 9-6 8-7 6-12 9-9 6-19 8-21 7h-12l-14-7-7-9-3-7-1-8 3-13 8-10 10-10 8-7 33-22 26-13 9-7 2-2-1-5-16 1-10 4-9 2-24 13-20 13-11 8-13 10-8 7-8 5-11 11-10 7-10 8-70 70-8 10-6 9-10 14-6 10-11 17-17 29-14 24-10 18-8 13-13 23-6 10-9 17-10 17-12 23-9 15-16 29-13 23-8 13-13 25-6 10-12 21-6 10-9 16-6 10-6 12-11 19-13 25-14 24-10 18-13 23-8 11-8 7-9 1-8-2-6-4-3-5 1-11 7-16 12-24 13-23 14-26 8-13 14-26 10-17 10-19 28-49 13-23 7-12 8-16 10-17 9-16 12-21 10-19 18-32 12-21 11-20 13-23 8-14 14-24 12-23 12-21 8-15 8-13 20-35 11-20 6-10 11-23 11-18 8-15 2-5v-3l-7 1-9 6-16 9-6 4-11 6-19 11-11 6-13 8-12 6-11 7-20 11-16 10-11 6-21 12-12 8-10 9-12 11-8 7-22 14-15 7-20 7-6 1h-18l-8-2-5-4-4-9v-11l5-9 10-9 21-12 11-7 16-8 13-7 12-9 5-6 1-9-4-6-12-16-4-5-11-9-8-7-6-8-8-9-8-7-5 2-10 8-11 8-45 30-15 9-27 14-20 9-20 7-32 8-42 7-12 1h-20l-14-2-17-6-11-6-5-5-7-10-8-12-1-3-9-1-11 7-9 7-8 8h-2l-2 4h-2v2l-8 7-35 35-10 6-6 2h-8l-6-3-5-5-5-9v-6l9-21 8-16 12-23 21-35 8-14 14-22 14-23 15-24 15-23 7-11 7-10 14-23 13-20 10-16 18-27 12-20 10-15 15-24 18-27 15-23 16-25 13-20 11-17 32-50 7-10 11-17 13-21 8-12 13-20 14-22 16-24 13-20 15-23 12-19 11-18 64-96 7-11 27-40 20-28 9-12 9-11 7-7z" fill="#FCBB13"/>
</svg>
