<?xml version="1.0" encoding="UTF-8"?>
<svg version="1.1" viewBox="0 0 2048 1598" width="1280" height="1280" xmlns="http://www.w3.org/2000/svg">
<path transform="translate(0)" d="m0 0h2048v1598h-2048z" fill="#FEFEFE"/>
<path transform="translate(880,18)" d="m0 0h12l6 5 3 10-2 4v7l-4 7-6 12-5 9-4 5-7 14-6 9-10 16-6 10-11 18-7 10-6 9-5 9-9 13-3 6-4 5-8 12-4 8-5 5-2 7-6 5-3 8-6 4-1 7-6 5-4 9-3 3-6 10-7 11-6 7-2 5-6 7-3 6-5 6-4 8-4 5-4 6-4 5-4 8-8 11-8 13-2 2-2 6-6 7-3 5-5 6-3 7-3 3-4 8-3 1-1 7-6 5-3 9-5 4-4 9-4 4-3 6-5 9-6 8-3 5-9 14-8 13-4 6-4 5-3 7-14 22-5 8-7 10-4 6-5 7-4 7-4 5-4 7-5 8-9 14-2 2-3 7-6 5v6l-7 5-3 9-6 4-1 8-5 3h-2l-1 8-7 6-2 7-5 6-3 6-4 5-5 8-9 14-3 5-7 10-6 11-6 7-2 7-5 4-2 8-7 5-2 7-4 4-1 2h-2v5l-4 4-2 6-4 5-3 3-1 4-6 6h-2l2 5-8 7-2 7-3 1-1 3 5-3 8-4 11-9 5-3 6-5 6-2 10-10 5-1h2l2-5h2l2-4 5 1 2-4 5-4 6-1 2-4 4-4 7 1 1-5 7-3 5-3 1-2 6-1 2-4h6l4-4 5-1 3-3h5l2-4h5l3-4 10-2 5-2h13l8 6 4 4v13l-3 4-2 6-4 4-7 2-5 6-7 1-2 4h-6l-2 4-6 1-1 2-3 1-2 4-7 1-2 3-6 1-1 3-9 4h-3l-2 5h-6l-3 4h-2v4l-7-1-2 5-8 7-3 2-1-3h-2l-1 6-4 2-4 4v5l-4 2-1 8-3 2-1 3 3 1 3 9 7 8 7 2 2 3h36l1-4h16l3-1 3-3 10-1 5-3 10-1 2-2 9-3 5-2 6-1 1-3 8-2 7-3 4-1 1-2 8-1 2-4 6-2 8-3 3-3 5-2 9-3 2-4 10-5 2-2 7-3 8-3 5-6 7-3 5-5 7-2 5-6 4-2h3l2-4 11-9 7-4 33-33 7-6 32-16 1-1 9-1 3-3 19-1 4-3h19l5 3 11 1 4 3 7 3 10 6 6 7 8 14v30l-3 2-1 8-4 4-1 5-5 4-6 8-7 1-2 3-10 1-4-3-6-2-1-3-3-2-1-17 5-4 7-10v-16l-11-1-3-2-8 1-1 1h-19l-1 4-9 1-2 4h-6l-7 8-5-1-1 4-6 5h-3l1 8-4 1v5l4 3v6l7 6 7 8 8 8 8 7 7 7 4 5 2 5 10 10 2 6 3 2v7h7l2-5 6 1 2-4h7v-4l4-2 1-2 7-1 1-3 8-1v-3l7-1 7-7 6-2 2-3 5-1 3-3h5l5-5 9-5 2-2 7-3 6-2h2l1-3 7-3 11-7 2-2 8-3 1-2 7-3 9-5 5-4 7-3 9-5 4-4 7-3 19-10 16-8 9-1 3-3 14-1 7 1 10 9v12l-3 2-1 14h-5l1 8-5 1 1 7-4 2-2 6-4 5-3 1 1 6-5 2 1 6-5 4 1 3-4 5-5 7v2l3-1 5-6 8-7 4-2 3 1 3-5 7-5 2-4 3 1 7-5 4-4 4-2 5-4 1-2 6-1 6-7 7-2 3-3 9-5 1-2 7-1 4-4 6-1 3-2 8-1 2-4 12-1 2-2 36-1 5 4h6l13 12 11 11 7 1 3-3h9l2-4 11-1 2-3 7-1 2-4h9l2-3 11-1 4-4h9v-3l12-2 4-3h9v-3l12-2 3-3 14-1 1-3h9l13-1 1-3h8l2-4 7-8 16-1 8 1 5 6v18l-5 1 1 9-1 2-3 1v6l-5 3 1 5-4 3-1 7-4 2 1 4-4 4-1 6-3 3-3 6-2 5 5-5 9-8h5l2-4 5-5 12-10 6-4 11-10 6-3 7-6 7-3 4-4 8-4 17-9 7-2 3-3 9-1 2-2h14l13 7 4 5 2 4 2 1 1 3v12l4 2v20l-1 4-2 1-2 25-2 1-2 17-4 1v15l-3 1v35l7-1 1-1h8l3-1 2-3 7-1 2-4 3 1 3-1 2-4h5l2-3 7-2 6-7h5l8-8 6-2 3-3h2l1-3 6-2 3-3h2l2-4 5-1 7-7 10-6 7-6 5-1 6-7 7-2 5-6 14-9 7-6 6-4 10-8 11-8 8-7 6-4 10-8 16-8h17l6 7 4 8-1 6-6 9-3 6-8 9-12 8-8 8-11 8-6 4-4 5-10 6-13 12-3 2h-4l-2 4-8 6-2 3h-6l-2 4-3 4h-7l-2 4-7 6-1 2-6 2-7 6-7 2-1 3-4 4h-5l-6 5-8 4-2 4-7-1-1 5h-6l-1 3-3 1-2 4-6-1-2 5h-6l-2 4h-7l-3 1-1 3-9 1-2 4h-9l-2 3h-39l-10-5-7-7-4-9-1-1-1-19h-2l-2-10 1-8 3-7 1-27 3-2 1-15 3-2 1-15h4v-21l-3 1-4 4h-4l-4 4h-5l-1 4-7 5-3 3h-2l-2-2-2 5-16 12-10 9-11 11-11 8-11 10-6 5-7 8-32 32h-2l-2 4-10 9-11 9-8 7-9 8-12 1-10-4-5-4-4-2v-22l3-3 1-8 3-4 3-7 8-16 4-9 6-11 2-5 3-4 4-7 3-4 7-14 3-1v-7l3-1 1-7 3-2v-5h-7l-2 2-10 1-1 4h-9l-6 1-3 3h-9l-2 4h-12l-2 5-10-2-1 5-2 1-10-1-1 5-10-1-1 5h-8l-1 4-11-1v5h-9l-1 4h-6l-2 4-3 1v6l-4 2-4 6-4 7-8 8-11 15-8 7-6 4-7 5-2 4-8 2-2 3h-7l-4 4-8 1-2 3-11 1-4 3h-16l-1-4-6 1-3-5-5-1-3-7-2-1-1-7-3-2-1-10 5-1v-11l23-23 6-5 1-2 6-2 5-4 3-3h5l2-4 5-4 5-1 2-3 7 1 1-5 7-2 1-2h6l2-4 10-5v-6l-2-1-1 3-19 1-2 4h-12l-1 4h-6l-2 4h-5l-3 4h-5l-5 5-2 3h-6l-2 4-5 4-6 3-13 10-8 6-3 3h-2l-1 3-6 2-18 18-10 6-17 16-54 54-7 8-6 7-1 5-7 6-5 10-3 1-2 8-6 5-2 7-5 5-3 7-2 2-3 7-4 6-3 5-2 2-3 7-10 18-4 5-3 7-6 10-8 13-6 12-10 16-7 14-6 10-4 7-8 16-12 21-4 6-4 8-10 17-5 10-2 2-2 5-5 10-5 4-1 7-6 1 2 6-4 3v5l-5 5-4 8-5 9-4 8-4 7-8 13-6 11-7 11-10 19-7 12-6 11-8 15-3 6-6 10-7 12-7 14-7 11-10 18-5 7-3 5-6 7-7 1h-13l-3-3-5-2-5-5v-10l3-3 2-10h2l2-7 8-16 10-19 10-17 12-23 8-13 11-21 11-18 10-20 11-19 10-18 8-13 20-36 11-22 6-9 5-9 12-20 11-21 11-19 11-20 8-13 8-16 7-12 6-10 6-11 9-15 7-14 7-11 8-14 8-16 4-6 3-5 4-8 3-7 3-3 3-7 6-9 12-22 3-3 3-7 4-8h2l1-6 9-14 2-3 1-5 3-1 3-8h2v-7l4-2 2-7h2l2-5 3-6 3-4 1-5 4-1-1-6 3-3h2l-1-3h-5l-2 4-6 4-6 1-1 4h-7l-4 4-2 4h-7l-1 4-6-1-1 4-6 2-1 2-5 1-1 4h-8l-1 4h-6l-2 4-3 1-1 3h-8l-1 5h-7l-1 3-6 1-3 4h-3l-1 4-5-2v2h-2l-1 4h-6l-1 4-3 1-4-1-2 4-4 1v3l-7-1-1 6-5-1-3-1v5l-4 1-3-1-1 5-8-1-1 5-4 4h-8l-1 4-9 4-2 4-6 4-4 5-5 4-12 12-5 2-9 7-8 4-1 3-3 1-4-1-2 4-10 1-2 4h-9l-2 1-1 3-36-1-8-9-1-3v-18l12-13 15-10 6-2 8-6 5-3 16-8 9-4 2-2 5-1 5-6 7-2 1-3h2l2-11-1-4-5-4-6-8-3-6-7-7-12-9-4-4-9-12-7-8-4-2-1-7-5 5-6 5-1 2h-6l-2 4-3 1-1 3-5 5h-6l-2 3h-2l-2 5h-7l-2 4-3 4h-6l-3 4h-2v4l-3 1h-5l-2 4-5-1-1 4-4 1-3 4-4-1-3 5-7-1-1 5-7-1-1 4-7 2-2 3h-6l-2 4h-6l-2 4h-10l-3 5h-10l-2 3-18 1-2 3-21 2v2l-19 2-5 2-12 1h-34l-3-1-1-2-10-1-4-4-6-1-2-3-6-2-7-6-2-3-2-6-2-4-4-1-1-10-10-1-4-2-2 6-3 1-2 3h-5l-7 8-54 54-5 4-5 2-2 2h-17l-3-2v-2l-4-2-3-3-1-8-4-1v-6l3-4 2-7 13-27 10-19 9-16 9-15 7-11 4-7 3-7 4-4 4-8 6-10 4-5 2-5 5-7 3-5 5-9 6-6v-5l5-5 5-8 2-2 2-6 6-6 2-6 6-7 2-6 3-3 9-15 10-15 5-6 2-6 6-6 2-7 7-6 1-6 5-5 6-10 8-13 3-6 5-6 4-7 7-11 9-14 10-15 3-5 4-4 3-7 6-7 1-5 6-5 4-9h2l6-12 14-22 4-4 2-6 6-7 3-6 5-6 3-6 11-17 7-10 2-6 5-4 3-8 5-4 2-8 5-4 5-9 7-11 4-7 7-9 3-6 5-6 3-6 6-8 5-9 13-20 7-10 5-8 3-5 4-5 2-5 3-3h2l1-8 8-7 2-6 4-2 2-4 2-7 5-5 4-8 5-8 5-7 2-5 6-6 3-7 3-1 2-4 2-6 7-8 1-4 6-7 3-6 6-7 2-5 6-7 2-5 6-8 3-6 5-5 2-6 7-8 2-5 5-5 3-7 6-7 3-6 6-7 3-6 9-11 3-5 6-7 6-9 9-9 4-5z" fill="#FEBF0B"/>
</svg>
